<?xml version="1.0" encoding="UTF-8"?>
<!DOCTYPE svg PUBLIC "-//W3C//DTD SVG 1.1//EN" "http://www.w3.org/Graphics/SVG/1.1/DTD/svg11.dtd">
<svg xmlns="http://www.w3.org/2000/svg" version="1.1" width="139px" height="39px" style="shape-rendering:geometricPrecision; text-rendering:geometricPrecision; image-rendering:optimizeQuality; fill-rule:evenodd; clip-rule:evenodd" xmlns:xlink="http://www.w3.org/1999/xlink">
<g><path style="opacity:0.843" fill="#fd9b29" d="M 51.5,-0.5 C 53.8333,-0.5 56.1667,-0.5 58.5,-0.5C 62.2489,2.24021 64.2489,5.90688 64.5,10.5C 60.7675,12.1307 56.7675,13.1307 52.5,13.5C 50.0971,13.552 47.7638,13.2186 45.5,12.5C 45.0618,12.5654 44.7284,12.3988 44.5,12C 45.4158,11.7216 46.0825,11.2216 46.5,10.5C 46.0764,5.72979 47.743,2.06313 51.5,-0.5 Z M 52.5,2.5 C 58.3823,2.04943 60.7157,4.7161 59.5,10.5C 56.1667,10.5 52.8333,10.5 49.5,10.5C 49.0156,7.21184 50.0156,4.54517 52.5,2.5 Z"/></g>
<g><path style="opacity:0.063" fill="#fce0af" d="M 64.5,10.5 C 65.404,11.209 65.7373,12.209 65.5,13.5C 61.1667,13.5 56.8333,13.5 52.5,13.5C 56.7675,13.1307 60.7675,12.1307 64.5,10.5 Z"/></g>
<g><path style="opacity:0.54" fill="#8fa0b6" d="M 73.5,14.5 C 71.0521,15.4731 68.3854,15.8064 65.5,15.5C 65.5,21.1667 65.5,26.8333 65.5,32.5C 66.8333,32.5 68.1667,32.5 69.5,32.5C 68.0813,33.4511 66.4147,33.7845 64.5,33.5C 64.5,27.1667 64.5,20.8333 64.5,14.5C 67.5,14.5 70.5,14.5 73.5,14.5 Z"/></g>
<g><path style="opacity:0.045" fill="#ffdab5" d="M 86.5,15.5 C 87.4889,20.9753 87.8222,26.642 87.5,32.5C 85.8333,32.5 84.1667,32.5 82.5,32.5C 82.8128,28.9581 82.4794,25.6248 81.5,22.5C 81.56,21.9569 81.8933,21.6236 82.5,21.5C 83.487,24.7683 83.8204,28.1016 83.5,31.5C 84.5,31.5 85.5,31.5 86.5,31.5C 86.5,26.1667 86.5,20.8333 86.5,15.5 Z"/></g>
<g><path style="opacity:1" fill="#ff9918" d="M 86.5,15.5 C 86.5,20.8333 86.5,26.1667 86.5,31.5C 85.5,31.5 84.5,31.5 83.5,31.5C 83.8204,28.1016 83.487,24.7683 82.5,21.5C 81.8933,21.6236 81.56,21.9569 81.5,22.5C 80.8333,22.8333 80.1667,23.1667 79.5,23.5C 79.5,22.5 79.5,21.5 79.5,20.5C 81.2785,19.3303 82.2785,17.6636 82.5,15.5C 83.8333,15.5 85.1667,15.5 86.5,15.5 Z"/></g>
<g><path style="opacity:0.929" fill="#ffa031" d="M 93.5,15.5 C 96.6516,14.9586 99.1516,15.9586 101,18.5C 101.667,22.1667 101.667,25.8333 101,29.5C 95.6809,34.2287 92.0142,33.2287 90,26.5C 89.4615,22.2544 90.6282,18.5877 93.5,15.5 Z M 94.5,19.5 C 96.3023,20.3155 97.3023,21.8155 97.5,24C 96.9221,25.8114 96.4221,27.6447 96,29.5C 94.5949,26.3812 94.0949,23.0479 94.5,19.5 Z"/></g>
<g><path style="opacity:1" fill="#ff9512" d="M 107.5,16.5 C 108.5,16.5 109.5,16.5 110.5,16.5C 110.5,21.5 110.5,26.5 110.5,31.5C 109.5,31.5 108.5,31.5 107.5,31.5C 107.82,28.1016 107.487,24.7683 106.5,21.5C 105.893,21.6236 105.56,21.9569 105.5,22.5C 105.44,23.0431 105.107,23.3764 104.5,23.5C 103.386,22.277 103.219,20.9437 104,19.5C 105.518,18.8366 106.685,17.8366 107.5,16.5 Z"/></g>
<g><path style="opacity:0.135" fill="#ffb45d" d="M 107.5,16.5 C 108.568,15.5655 109.901,15.2322 111.5,15.5C 111.5,21.1667 111.5,26.8333 111.5,32.5C 109.833,32.5 108.167,32.5 106.5,32.5C 106.813,28.9581 106.479,25.6248 105.5,22.5C 105.56,21.9569 105.893,21.6236 106.5,21.5C 107.487,24.7683 107.82,28.1016 107.5,31.5C 108.5,31.5 109.5,31.5 110.5,31.5C 110.5,26.5 110.5,21.5 110.5,16.5C 109.5,16.5 108.5,16.5 107.5,16.5 Z"/></g>
<g><path style="opacity:0.978" fill="#ffa030" d="M 117.5,15.5 C 123.502,15.3037 126.502,18.3037 126.5,24.5C 126.137,32.3953 122.637,34.3953 116,30.5C 113.888,25.1883 114.388,20.1883 117.5,15.5 Z M 119.5,19.5 C 120.765,20.5145 121.431,22.0145 121.5,24C 121.167,25.5 120.833,27 120.5,28.5C 118.215,25.8222 117.882,22.8222 119.5,19.5 Z"/></g>
<g><path style="opacity:1" fill="#50658c" d="M 61.5,18.5 C 60.0813,19.4511 58.4147,19.7845 56.5,19.5C 49.5321,19.9297 48.1987,22.7631 52.5,28C 53.448,28.4828 54.448,28.6495 55.5,28.5C 56.4959,28.5858 57.3292,28.2524 58,27.5C 58.1667,28.1667 58.3333,28.8333 58.5,29.5C 57.563,31.288 56.2297,32.6214 54.5,33.5C 50.1691,33.0076 46.8358,31.0076 44.5,27.5C 44.5,25.5 44.5,23.5 44.5,21.5C 47.1649,15.3369 51.8316,13.1702 58.5,15C 60.0629,15.7589 61.0629,16.9256 61.5,18.5 Z"/></g>
<g><path style="opacity:1" fill="#566b8f" d="M 42.5,14.5 C 42.5,15.5 42.5,16.5 42.5,17.5C 41.5655,18.5676 41.2322,19.901 41.5,21.5C 41.5,22.5 41.5,23.5 41.5,24.5C 40.5655,25.5676 40.2322,26.901 40.5,28.5C 40.5,30.1667 40.5,31.8333 40.5,33.5C 39.5,33.5 38.5,33.5 37.5,33.5C 37.5,30.8333 37.5,28.1667 37.5,25.5C 35.8333,25.5 34.1667,25.5 32.5,25.5C 32.5,27.8333 32.5,30.1667 32.5,32.5C 32.1667,32.5 31.8333,32.5 31.5,32.5C 31.5,29.8333 31.5,27.1667 31.5,24.5C 40.8333,23.8333 40.8333,23.1667 31.5,22.5C 31.5,20.1667 31.5,17.8333 31.5,15.5C 31.8333,15.5 32.1667,15.5 32.5,15.5C 32.5,17.5 32.5,19.5 32.5,21.5C 34.1667,21.5 35.8333,21.5 37.5,21.5C 37.5,19.1667 37.5,16.8333 37.5,14.5C 39.1667,14.5 40.8333,14.5 42.5,14.5 Z"/></g>
<g><path style="opacity:1" fill="#596e93" d="M 61.5,18.5 C 65.4281,26.3142 63.0947,31.3142 54.5,33.5C 56.2297,32.6214 57.563,31.288 58.5,29.5C 58.3333,28.8333 58.1667,28.1667 58,27.5C 57.3292,28.2524 56.4959,28.5858 55.5,28.5C 59.0426,25.8677 59.3759,22.8677 56.5,19.5C 58.4147,19.7845 60.0813,19.4511 61.5,18.5 Z"/></g>
<g><path style="opacity:1" fill="#50658d" d="M 24.5,25.5 C 24.5,27.1667 24.5,28.8333 24.5,30.5C 21.0503,34.0414 17.217,34.3747 13,31.5C 12.5065,29.8659 12.3398,28.1992 12.5,26.5C 13.8333,26.5 15.1667,26.5 16.5,26.5C 15.7387,25.6091 14.7387,24.9424 13.5,24.5C 11.1918,14.5567 14.6918,11.89 24,16.5C 26.4514,19.0299 25.9514,20.3632 22.5,20.5C 20.626,20.6102 19.126,19.9436 18,18.5C 17.5,19 17,19.5 16.5,20C 18.8333,21 21.1667,22 23.5,23C 24.2524,23.6708 24.5858,24.5041 24.5,25.5 Z M 16.5,26.5 C 17.675,26.281 18.675,26.6143 19.5,27.5C 18.1405,28.6653 17.1405,28.332 16.5,26.5 Z"/></g>
<g><path style="opacity:1" fill="#4a6088" d="M 73.5,14.5 C 76.5325,15.5324 78.5325,17.5324 79.5,20.5C 79.5,21.5 79.5,22.5 79.5,23.5C 76.8382,26.1726 73.5049,27.506 69.5,27.5C 69.5,29.1667 69.5,30.8333 69.5,32.5C 68.1667,32.5 66.8333,32.5 65.5,32.5C 65.5,26.8333 65.5,21.1667 65.5,15.5C 68.3854,15.8064 71.0521,15.4731 73.5,14.5 Z M 69.5,19.5 C 70.8333,19.5 72.1667,19.5 73.5,19.5C 73.5,20.5 73.5,21.5 73.5,22.5C 72.1667,22.5 70.8333,22.5 69.5,22.5C 69.5,21.5 69.5,20.5 69.5,19.5 Z"/></g>
<g><path style="opacity:0.975" fill="#3f5883" d="M 31.5,15.5 C 31.5,17.8333 31.5,20.1667 31.5,22.5C 40.8333,23.1667 40.8333,23.8333 31.5,24.5C 31.5,27.1667 31.5,29.8333 31.5,32.5C 30.1667,32.5 28.8333,32.5 27.5,32.5C 27.5,26.8333 27.5,21.1667 27.5,15.5C 28.8333,15.5 30.1667,15.5 31.5,15.5 Z"/></g>
<g><path style="opacity:0.098" fill="#abb3c4" d="M 32.5,15.5 C 32.1667,15.5 31.8333,15.5 31.5,15.5C 30.1667,15.5 28.8333,15.5 27.5,15.5C 27.5,21.1667 27.5,26.8333 27.5,32.5C 28.8333,32.5 30.1667,32.5 31.5,32.5C 31.8333,32.5 32.1667,32.5 32.5,32.5C 30.7354,33.4614 28.7354,33.7947 26.5,33.5C 26.6602,31.8008 26.4935,30.1341 26,28.5C 25.7216,29.4158 25.2216,30.0825 24.5,30.5C 24.5,28.8333 24.5,27.1667 24.5,25.5C 25.1174,25.6107 25.6174,25.944 26,26.5C 26.4988,22.5138 26.6655,18.5138 26.5,14.5C 28.7354,14.2053 30.7354,14.5386 32.5,15.5 Z"/></g>
<g><path style="opacity:0.922" fill="#fda63c" d="M 46.5,10.5 C 46.0825,11.2216 45.4158,11.7216 44.5,12C 44.7284,12.3988 45.0618,12.5654 45.5,12.5C 45.2962,15.5176 44.9629,18.5176 44.5,21.5C 44.5,23.5 44.5,25.5 44.5,27.5C 43.2801,29.0496 43.2801,30.7163 44.5,32.5C 43.5084,32.3284 42.8417,32.6618 42.5,33.5C 41.8333,33.5 41.1667,33.5 40.5,33.5C 40.5,31.8333 40.5,30.1667 40.5,28.5C 41.4345,27.4324 41.7678,26.099 41.5,24.5C 41.5,23.5 41.5,22.5 41.5,21.5C 42.4345,20.4324 42.7678,19.099 42.5,17.5C 42.5,16.5 42.5,15.5 42.5,14.5C 42.5,13.1667 42.5,11.8333 42.5,10.5C 43.8333,10.5 45.1667,10.5 46.5,10.5 Z"/></g>
<g><path style="opacity:1" fill="#fca439" d="M 44.5,32.5 C 51.0755,35.8937 57.7422,36.2271 64.5,33.5C 64.631,34.2389 64.4643,34.9056 64,35.5C 62.3484,36.3994 60.8484,37.3994 59.5,38.5C 56.1667,38.5 52.8333,38.5 49.5,38.5C 46.6733,37.5812 44.34,35.9145 42.5,33.5C 42.8417,32.6618 43.5084,32.3284 44.5,32.5 Z"/></g>
</svg>
